# xmcd
#
# Track frame offsets:
#	150
#	18946
#	39418
#	57030
#	73987
#	91352
#	105693
#	125155
#	144129
#	167144
#	186585
#	205383
#	223955
#
# Disc length: 3209 seconds
#
# Revision: 1
# Processed by: cddbd v1.5.2PL0 Copyright (c) Steve Scherf et al.
# Submitted via: audiograbber 1.83.01
#
DISCID=c70c870d
DTITLE=NANDO CORDEL - MEUS CHOROS
DYEAR=1900
DGENRE=
TTITLE0=O SORRISO DO CHORO
TTITLE1=LU E LU
TTITLE2=ME ENROLA QUE ESTOU COM FRIO
TTITLE3=O CHORINHO DE PRETA
TTITLE4=CHEIO DE AMOR PRA DAR
TTITLE5=PICHITITINHO
TTITLE6=MEU CHORINHO PREDILETO
TTITLE7=TEU DENGO ME DERRETE
TTITLE8=CHOROMINGANDO III
TTITLE9=DE NOVA ESPERANÇA A IPOCUJA
TTITLE10=BALANGADANS
TTITLE11=BATE QUE ABRE
TTITLE12=PANOS PRAS MANGAS
EXTD=
EXTT0=
EXTT1=
EXTT2=
EXTT3=
EXTT4=
EXTT5=
EXTT6=
EXTT7=
EXTT8=
EXTT9=
EXTT10=
EXTT11=
EXTT12=
PLAYORDER=
